<?xml version="1.0" standalone="no"?><!DOCTYPE svg PUBLIC "-//W3C//DTD SVG 1.1//EN" "http://www.w3.org/Graphics/SVG/1.1/DTD/svg11.dtd"><svg t="1640009334875" class="icon" viewBox="0 0 1024 1024" version="1.1" xmlns="http://www.w3.org/2000/svg" p-id="2580" xmlns:xlink="http://www.w3.org/1999/xlink" width="250" height="250"><defs><style type="text/css"></style></defs><path d="M800 0h-576A160 160 0 0 0 64 160v704A160 160 0 0 0 224 1024h576a160 160 0 0 0 160-160v-704A160 160 0 0 0 800 0zM896 864a96 96 0 0 1-96 96h-576A96 96 0 0 1 128 864v-704A96 96 0 0 1 224 64h576A96 96 0 0 1 896 160z" p-id="2581"></path><path d="M485.12 561.28a32 32 0 0 0 53.76 0l160-256a32 32 0 0 0-53.76-34.56L512 483.84 378.88 270.72a32 32 0 1 0-53.76 34.56zM672 704h-320a32 32 0 0 0 0 64h320a32 32 0 0 0 0-64z" p-id="2582"></path></svg>